<svg width="16" height="16" viewBox="0 0 16 16" fill="none" xmlns="http://www.w3.org/2000/svg">
<path d="M16 0H0V16H16V0Z" fill="#27272A"/>
<path fill-rule="evenodd" clip-rule="evenodd" d="M6.32441 2.05789L12.4019 3.68635C13.241 3.91119 13.739 4.77371 13.5142 5.61283L11.5804 12.8299C11.3555 13.669 10.493 14.1669 9.65388 13.9421L3.57639 12.3136C2.73727 12.0888 2.2393 11.2263 2.46414 10.3871L4.39793 3.17015C4.62278 2.33103 5.48529 1.83306 6.32441 2.05789ZM6.12086 2.81758C5.70129 2.70515 5.27004 2.95414 5.15761 3.3737L3.22383 10.5907C3.11141 11.0103 3.36039 11.4415 3.77996 11.5539L9.85744 13.1824C10.277 13.2948 10.7083 13.0459 10.8206 12.6263L12.7544 5.40927C12.8669 4.98971 12.6179 4.55845 12.1983 4.44603L6.12086 2.81758Z" fill="white"/>
<path d="M5.99201 4.81854C6.04822 4.60876 6.26385 4.48426 6.47364 4.54048L11.0317 5.76182C11.2415 5.81802 11.3661 6.03365 11.3098 6.24344C11.2536 6.45322 11.038 6.57771 10.8282 6.5215L6.27008 5.30016C6.0603 5.24395 5.93581 5.02832 5.99201 4.81854Z" fill="white"/>
<path d="M5.48298 6.71783C5.53919 6.50805 5.75482 6.38355 5.9646 6.43977L10.5227 7.66111C10.7325 7.71731 10.8569 7.93295 10.8008 8.14273C10.7446 8.35251 10.5289 8.477 10.3192 8.42079L5.76104 7.19945C5.55126 7.14324 5.42677 6.92761 5.48298 6.71783Z" fill="white"/>
<path d="M4.97419 8.617C5.0304 8.40722 5.24603 8.28272 5.45581 8.33894L8.11471 9.05136C8.32448 9.10763 8.44897 9.32318 8.39277 9.53296C8.33656 9.74282 8.12093 9.86727 7.91114 9.81109L5.25225 9.09865C5.04248 9.04238 4.91798 8.82677 4.97419 8.617Z" fill="white"/>
</svg>
