<svg width="16" height="16" viewBox="0 0 16 16" fill="none" xmlns="http://www.w3.org/2000/svg">
<path d="M2 5.33337L7.26 8.84004C7.47911 8.98623 7.7366 9.06424 8 9.06424C8.2634 9.06424 8.52089 8.98623 8.74 8.84004L14 5.33337H2ZM3.33333 12.6667H12.6667C13.0203 12.6667 13.3594 12.5262 13.6095 12.2762C13.8595 12.0261 14 11.687 14 11.3334V4.66671C14 4.31309 13.8595 3.97395 13.6095 3.7239C13.3594 3.47385 13.0203 3.33337 12.6667 3.33337H3.33333C2.97971 3.33337 2.64057 3.47385 2.39052 3.7239C2.14048 3.97395 2 4.31309 2 4.66671V11.3334C2 11.687 2.14048 12.0261 2.39052 12.2762C2.64057 12.5262 2.97971 12.6667 3.33333 12.6667Z" stroke="white" stroke-linecap="round" stroke-linejoin="round"/>
</svg>
