<svg width="16" height="14" viewBox="0 0 16 14" fill="none" xmlns="http://www.w3.org/2000/svg">
<path d="M14.3553 3.74113C14.3655 3.88325 14.3655 4.02541 14.3655 4.16753C14.3655 8.50253 11.066 13.4975 5.03553 13.4975C3.17766 13.4975 1.45178 12.9594 0 12.0254C0.263969 12.0558 0.51775 12.066 0.791875 12.066C2.32484 12.066 3.73603 11.5483 4.86294 10.665C3.42131 10.6345 2.21319 9.69038 1.79694 8.39088C2 8.42131 2.20303 8.44163 2.41625 8.44163C2.71066 8.44163 3.00509 8.401 3.27919 8.32997C1.77666 8.02538 0.649719 6.70559 0.649719 5.11169V5.07109C1.08625 5.31475 1.59391 5.46703 2.13194 5.48731C1.24869 4.89847 0.670031 3.89341 0.670031 2.75634C0.670031 2.14722 0.832438 1.58884 1.11672 1.10153C2.73094 3.09138 5.15734 4.39084 7.87813 4.533C7.82738 4.28934 7.79691 4.03556 7.79691 3.78175C7.79691 1.97463 9.25884 0.502563 11.0761 0.502563C12.0202 0.502563 12.873 0.898501 13.472 1.53809C14.2131 1.39597 14.9238 1.12184 15.5533 0.74622C15.3096 1.50766 14.7918 2.14725 14.1116 2.55331C14.7715 2.48228 15.4111 2.2995 15.9999 2.04572C15.5533 2.69544 14.9949 3.27409 14.3553 3.74113V3.74113Z" fill="white"/>
</svg>
